<?xml version="1.0" standalone="no"?>
<!DOCTYPE svg PUBLIC "-//W3C//DTD SVG 20010904//EN"
 "http://www.w3.org/TR/2001/REC-SVG-20010904/DTD/svg10.dtd">
<svg version="1.0" xmlns="http://www.w3.org/2000/svg"
 width="2418.000000pt" height="575.000000pt" viewBox="0 0 2418.000000 575.000000"
 preserveAspectRatio="xMidYMid meet">

<g transform="translate(0.000000,575.000000) scale(0.100000,-0.100000)"
fill="#000000" stroke="none">
<path d="M5690 5316 c-223 -48 -387 -180 -497 -401 -111 -222 -140 -561 -73
-845 27 -111 104 -268 173 -351 132 -159 336 -240 566 -226 107 7 160 21 247
65 60 31 148 99 172 133 7 10 17 19 22 19 9 0 60 -149 60 -176 0 -11 19 -14
95 -14 l95 0 0 475 0 475 -365 0 -365 0 0 -165 0 -165 171 0 172 0 -7 -52
c-21 -162 -155 -270 -316 -255 -153 14 -252 116 -307 317 -27 99 -24 425 5
531 56 205 163 309 317 309 146 0 244 -89 289 -265 9 -32 17 -60 19 -61 2 -2
86 8 186 21 101 14 187 25 192 25 14 0 10 40 -12 120 -66 238 -239 416 -464
476 -83 22 -293 27 -375 10z"/>
<path d="M15405 5320 c-201 -32 -363 -137 -445 -292 -38 -71 -48 -103 -59
-190 -20 -148 18 -293 100 -382 95 -104 216 -161 492 -230 278 -70 327 -100
335 -200 6 -79 -27 -134 -105 -173 -54 -26 -67 -28 -178 -28 -111 0 -125 2
-183 29 -75 35 -135 97 -159 168 -13 34 -22 47 -33 43 -8 -2 -87 -20 -175 -40
-88 -20 -168 -38 -177 -41 -15 -5 -15 -9 1 -57 34 -98 74 -162 145 -233 139
-139 307 -198 561 -198 329 0 531 98 663 323 62 106 81 288 42 414 -38 123
-130 232 -247 295 -65 34 -238 88 -416 128 -129 29 -211 65 -240 106 -11 14
-22 48 -24 75 -6 67 19 111 83 143 43 22 61 25 159 25 94 0 116 -3 151 -22 66
-35 101 -70 132 -131 l28 -58 169 56 c93 31 170 61 173 68 9 28 -66 149 -138
223 -85 86 -158 126 -287 160 -91 23 -279 32 -368 19z"/>
<path d="M16810 4757 l0 -572 565 -565 565 -565 0 568 0 567 1050 0 1050 0 0
-1130 0 -1130 -1615 0 -1615 0 0 -570 0 -570 2180 0 2180 0 0 2270 0 2270
-2180 0 -2180 0 0 -573z"/>
<path d="M21350 4475 l0 -850 282 -282 283 -283 -278 0 -277 0 0 -565 0 -565
842 0 843 0 567 -567 568 -568 0 850 0 850 -1415 1415 -1415 1415 0 -850z"/>
<path d="M180 4410 l0 -891 508 3 c484 4 511 5 585 26 108 30 189 76 248 140
235 257 135 646 -189 743 l-43 13 60 27 c171 78 251 194 251 368 0 212 -135
382 -350 440 -44 11 -155 15 -562 18 l-508 4 0 -891z m897 547 c88 -48 118
-158 68 -256 -21 -43 -35 -57 -73 -74 -43 -20 -67 -22 -264 -25 l-218 -4 0
192 0 192 228 -4 c193 -3 232 -6 259 -21z m18 -708 c74 -37 108 -92 113 -178
5 -78 -16 -131 -68 -174 -51 -43 -91 -50 -327 -54 l-223 -5 0 222 0 222 228
-4 c221 -3 229 -4 277 -29z"/>
<path d="M1920 4410 l0 -890 635 0 635 0 0 175 0 175 -425 0 -425 0 0 190 0
190 335 0 335 0 0 170 0 170 -335 0 -335 0 0 185 0 185 425 0 425 0 0 170 0
170 -635 0 -635 0 0 -890z"/>
<path d="M3440 4410 l0 -890 160 0 160 0 2 592 3 593 344 -593 343 -592 179 0
179 0 0 890 0 890 -160 0 -160 0 -2 -516 -3 -515 -297 513 -297 513 -225 3
-226 2 0 -890z"/>
<path d="M6890 4410 l0 -890 205 0 205 0 0 205 0 205 123 179 c98 144 124 176
131 162 6 -9 85 -180 178 -381 l168 -365 231 -3 c184 -2 230 0 226 10 -3 7
-123 264 -266 571 -144 307 -261 559 -261 562 0 2 95 144 210 315 116 172 210
314 210 316 0 2 -89 4 -198 4 l-199 0 -274 -411 -274 -412 -3 412 -2 411 -205
0 -205 0 0 -890z"/>
<path d="M8570 4410 l0 -890 635 0 635 0 0 175 0 175 -425 0 -425 0 0 190 0
190 335 0 335 0 0 170 0 170 -335 0 -335 0 0 185 0 185 425 0 425 0 0 170 0
170 -635 0 -635 0 0 -890z"/>
<path d="M10090 4410 l0 -890 565 0 565 0 0 175 0 175 -355 0 -355 0 0 715 0
715 -210 0 -210 0 0 -890z"/>
<path d="M12010 4410 l0 -890 565 0 565 0 0 175 0 175 -355 0 -355 0 0 715 0
715 -210 0 -210 0 0 -890z"/>
<path d="M13721 5208 c-16 -51 -141 -439 -276 -863 -135 -423 -250 -782 -255
-798 l-9 -27 182 2 182 3 56 185 57 185 287 0 288 0 56 -187 55 -188 224 0
223 0 -7 23 c-4 12 -130 411 -279 887 l-272 865 -240 3 -241 2 -31 -92z m323
-683 c47 -159 86 -293 86 -297 0 -5 -83 -8 -185 -8 -102 0 -185 3 -185 6 0 3
38 132 85 287 47 155 88 290 91 301 3 10 9 14 14 10 4 -5 46 -139 94 -299z"/>
<path d="M180 3150 l0 -150 8085 0 8085 0 0 150 0 150 -8085 0 -8085 0 0 -150z"/>
<path d="M800 2830 c-205 -33 -374 -133 -495 -293 -148 -198 -213 -431 -201
-732 12 -323 98 -543 281 -713 142 -133 306 -199 515 -209 414 -19 717 200
802 580 18 79 20 100 9 106 -7 4 -72 11 -144 15 -73 3 -164 9 -203 12 l-71 6
-17 -67 c-33 -130 -92 -217 -180 -263 -44 -22 -64 -26 -141 -27 -79 0 -97 3
-147 28 -160 78 -214 239 -206 612 3 144 10 221 22 275 53 223 176 333 353
317 157 -15 244 -118 272 -322 6 -43 13 -80 15 -82 3 -4 282 13 395 23 l63 6
-6 51 c-20 155 -85 321 -170 435 -78 105 -209 188 -356 226 -76 20 -308 29
-390 16z"/>
<path d="M1980 1860 l0 -950 220 0 220 0 0 950 0 950 -220 0 -220 0 0 -950z"/>
<path d="M2620 2620 l0 -190 235 0 235 0 0 -760 0 -760 225 0 225 0 0 760 0
760 235 0 235 0 0 190 0 190 -695 0 -695 0 0 -190z"/>
<path d="M4200 1861 l0 -951 225 0 225 0 0 380 0 380 158 0 158 0 146 -377
145 -378 247 -3 c135 -1 246 -1 246 1 0 1 -78 191 -174 422 l-175 419 52 28
c112 62 179 130 228 233 125 263 -1 624 -256 735 -117 50 -147 53 -702 57
l-523 4 0 -950z m891 599 c69 -13 116 -51 152 -121 25 -47 28 -62 24 -116 -7
-96 -59 -173 -142 -210 -33 -14 -78 -18 -257 -21 l-218 -4 0 241 0 241 194 0
c106 0 217 -5 247 -10z"/>
<path d="M6491 2787 c-5 -12 -140 -434 -301 -937 -161 -503 -295 -921 -298
-928 -3 -10 37 -12 193 -10 l197 3 61 198 60 197 303 0 303 0 31 -102 c18 -57
45 -147 61 -200 l30 -98 240 0 c189 0 240 3 236 13 -2 6 -137 434 -298 949
l-294 938 -258 0 -257 0 -9 -23z m321 -817 l94 -315 -194 -3 c-107 -1 -197 0
-199 2 -3 2 39 149 93 325 54 177 101 318 105 314 4 -5 49 -150 101 -323z"/>
<path d="M8955 2768 c-2 -7 -135 -422 -295 -923 -160 -500 -295 -922 -300
-938 l-9 -27 194 0 194 0 26 88 c15 48 42 138 61 200 l35 112 307 -2 306 -3
60 -198 59 -197 237 0 238 0 -24 78 c-13 42 -147 469 -297 947 l-273 870 -257
3 c-201 2 -258 0 -262 -10z m316 -813 c50 -170 94 -316 97 -322 3 -10 -40 -13
-197 -13 -111 0 -201 3 -201 8 -1 21 195 651 201 645 4 -5 49 -147 100 -318z"/>
<path d="M10270 1831 l0 -951 470 0 c504 0 618 7 740 46 349 110 473 514 242
784 -48 57 -115 100 -200 131 l-74 26 49 18 c107 39 216 133 253 218 50 113
46 274 -9 394 -36 77 -125 167 -208 211 -118 62 -141 65 -730 69 l-533 5 0
-951z m968 584 c84 -51 117 -172 72 -268 -29 -61 -67 -93 -130 -106 -28 -6
-145 -11 -260 -11 l-210 0 0 206 0 206 248 -4 c225 -3 250 -5 280 -23z m14
-758 c118 -58 160 -195 98 -317 -23 -45 -45 -64 -105 -92 -47 -22 -65 -23
-292 -26 l-243 -4 0 237 0 236 243 -3 c242 -3 242 -3 299 -31z"/>
<path d="M12545 2768 c-2 -7 -135 -422 -295 -923 -160 -500 -295 -922 -300
-938 l-9 -27 194 0 194 0 26 88 c15 48 42 138 61 200 l35 112 307 -2 306 -3
60 -198 59 -197 237 0 238 0 -24 78 c-13 42 -147 469 -297 947 l-273 870 -257
3 c-201 2 -258 0 -262 -10z m316 -813 c50 -170 94 -316 97 -322 3 -10 -40 -13
-197 -13 -111 0 -201 3 -201 8 -1 21 195 651 201 645 4 -5 49 -147 100 -318z"/>
<path d="M13860 1829 l0 -951 408 5 c436 5 464 8 607 62 237 89 433 318 504
589 67 257 41 576 -65 776 -85 161 -235 316 -368 380 -154 73 -298 90 -763 90
l-323 0 0 -951z m755 587 c123 -32 207 -104 269 -229 61 -124 79 -218 74 -377
-4 -113 -9 -148 -32 -215 -68 -199 -172 -309 -327 -344 -24 -6 -104 -11 -176
-11 l-133 0 0 595 0 595 138 0 c82 0 157 -6 187 -14z"/>
<path d="M15710 1830 l0 -950 220 0 220 0 0 950 0 950 -220 0 -220 0 0 -950z"/>
</g>
</svg>
